<svg xmlns="http://www.w3.org/2000/svg" width="800" height="600"><defs><marker id="arrowhead" markerHeight="7" markerWidth="10" orient="auto" refX="9" refY="3.5"><polygon fill="#666" points="0 0 10 3.5 0 7"/></marker></defs><rect width="150" height="60" x="50" y="50" fill="#e3f2fd" stroke="#1976d2" stroke-width="2" rx="10"/><text x="125" y="85" font-family="Arial" font-size="14" font-weight="bold" text-anchor="middle">Client Request</text><rect width="150" height="60" x="325" y="50" fill="#e8f5e9" stroke="#388e3c" stroke-width="2" rx="10"/><text x="400" y="85" font-family="Arial" font-size="14" font-weight="bold" text-anchor="middle">API Gateway</text><rect width="150" height="60" x="600" y="50" fill="#fff3e0" stroke="#f57c00" stroke-width="2" rx="10"/><text x="675" y="85" font-family="Arial" font-size="14" font-weight="bold" text-anchor="middle">Authentication</text><rect width="150" height="60" x="600" y="200" fill="#f3e5f5" stroke="#7b1fa2" stroke-width="2" rx="10"/><text x="675" y="235" font-family="Arial" font-size="14" font-weight="bold" text-anchor="middle">Request Validation</text><rect width="150" height="60" x="325" y="200" fill="#e1f5fe" stroke="#0288d1" stroke-width="2" rx="10"/><text x="400" y="235" font-family="Arial" font-size="14" font-weight="bold" text-anchor="middle">Business Logic</text><rect width="150" height="60" x="50" y="200" fill="#fce4ec" stroke="#c2185b" stroke-width="2" rx="10"/><text x="125" y="235" font-family="Arial" font-size="14" font-weight="bold" text-anchor="middle">Data Access</text><rect width="150" height="60" x="50" y="350" fill="#f5f5f5" stroke="#616161" stroke-width="2" rx="10"/><text x="125" y="385" font-family="Arial" font-size="14" font-weight="bold" text-anchor="middle">Database</text><rect width="150" height="60" x="325" y="350" fill="#fff8e1" stroke="#ffa000" stroke-width="2" rx="10"/><text x="400" y="385" font-family="Arial" font-size="14" font-weight="bold" text-anchor="middle">Cache</text><rect width="150" height="60" x="325" y="500" fill="#e8eaf6" stroke="#3f51b5" stroke-width="2" rx="10"/><text x="400" y="535" font-family="Arial" font-size="14" font-weight="bold" text-anchor="middle">Response Processing</text><line x1="200" x2="325" y1="80" y2="80" stroke="#666" stroke-width="2" marker-end="url(#arrowhead)"/><line x1="475" x2="600" y1="80" y2="80" stroke="#666" stroke-width="2" marker-end="url(#arrowhead)"/><line x1="675" x2="675" y1="110" y2="200" stroke="#666" stroke-width="2" marker-end="url(#arrowhead)"/><line x1="600" x2="475" y1="230" y2="230" stroke="#666" stroke-width="2" marker-end="url(#arrowhead)"/><line x1="325" x2="200" y1="230" y2="230" stroke="#666" stroke-width="2" marker-end="url(#arrowhead)"/><line x1="125" x2="125" y1="260" y2="350" stroke="#666" stroke-width="2" marker-end="url(#arrowhead)"/><line x1="200" x2="325" y1="380" y2="380" stroke="#666" stroke-width="2" marker-end="url(#arrowhead)"/><line x1="400" x2="400" y1="410" y2="500" stroke="#666" stroke-width="2" marker-end="url(#arrowhead)"/><text x="262" y="60" font-family="Arial" font-size="12" text-anchor="middle">HTTP Request</text><text x="537" y="60" font-family="Arial" font-size="12" text-anchor="middle">Auth Check</text><text x="690" y="160" font-family="Arial" font-size="12" text-anchor="middle">Validate</text><text x="262" y="210" font-family="Arial" font-size="12" text-anchor="middle">Process</text><text x="125" y="310" font-family="Arial" font-size="12" text-anchor="middle">Query</text><text x="262" y="360" font-family="Arial" font-size="12" text-anchor="middle">Cache Check</text><text x="400" y="460" font-family="Arial" font-size="12" text-anchor="middle">Format Response</text></svg>