<svg xmlns="http://www.w3.org/2000/svg" width="800" height="600"><defs><marker id="arrowhead" markerHeight="7" markerWidth="10" orient="auto" refX="9" refY="3.5"><polygon fill="#666" points="0 0 10 3.5 0 7"/></marker></defs><rect width="600" height="100" x="100" y="50" fill="#e3f2fd" stroke="#1976d2" stroke-width="2" rx="10"/><text x="400" y="85" font-family="Arial" font-size="16" font-weight="bold" text-anchor="middle">Frontend Layer</text><rect width="120" height="30" x="150" y="100" fill="#bbdefb" stroke="#1976d2" rx="5"/><text x="210" y="120" font-family="Arial" font-size="12" text-anchor="middle">UI Components</text><rect width="120" height="30" x="340" y="100" fill="#bbdefb" stroke="#1976d2" rx="5"/><text x="400" y="120" font-family="Arial" font-size="12" text-anchor="middle">State Management</text><rect width="120" height="30" x="530" y="100" fill="#bbdefb" stroke="#1976d2" rx="5"/><text x="590" y="120" font-family="Arial" font-size="12" text-anchor="middle">API Client</text><rect width="600" height="100" x="100" y="200" fill="#e8f5e9" stroke="#388e3c" stroke-width="2" rx="10"/><text x="400" y="235" font-family="Arial" font-size="16" font-weight="bold" text-anchor="middle">API Layer</text><rect width="120" height="30" x="150" y="250" fill="#c8e6c9" stroke="#388e3c" rx="5"/><text x="210" y="270" font-family="Arial" font-size="12" text-anchor="middle">REST Endpoints</text><rect width="120" height="30" x="340" y="250" fill="#c8e6c9" stroke="#388e3c" rx="5"/><text x="400" y="270" font-family="Arial" font-size="12" text-anchor="middle">Authentication</text><rect width="120" height="30" x="530" y="250" fill="#c8e6c9" stroke="#388e3c" rx="5"/><text x="590" y="270" font-family="Arial" font-size="12" text-anchor="middle">Validation</text><rect width="600" height="100" x="100" y="350" fill="#fff3e0" stroke="#f57c00" stroke-width="2" rx="10"/><text x="400" y="385" font-family="Arial" font-size="16" font-weight="bold" text-anchor="middle">Business Layer</text><rect width="120" height="30" x="150" y="400" fill="#ffe0b2" stroke="#f57c00" rx="5"/><text x="210" y="420" font-family="Arial" font-size="12" text-anchor="middle">Business Logic</text><rect width="120" height="30" x="340" y="400" fill="#ffe0b2" stroke="#f57c00" rx="5"/><text x="400" y="420" font-family="Arial" font-size="12" text-anchor="middle">Services</text><rect width="120" height="30" x="530" y="400" fill="#ffe0b2" stroke="#f57c00" rx="5"/><text x="590" y="420" font-family="Arial" font-size="12" text-anchor="middle">Domain Models</text><rect width="600" height="70" x="100" y="500" fill="#f3e5f5" stroke="#7b1fa2" stroke-width="2" rx="10"/><text x="400" y="520" font-family="Arial" font-size="16" font-weight="bold" text-anchor="middle">Data Layer</text><rect width="120" height="30" x="150" y="525" fill="#e1bee7" stroke="#7b1fa2" rx="5"/><text x="210" y="545" font-family="Arial" font-size="12" text-anchor="middle">Database</text><rect width="120" height="30" x="340" y="525" fill="#e1bee7" stroke="#7b1fa2" rx="5"/><text x="400" y="545" font-family="Arial" font-size="12" text-anchor="middle">Cache</text><rect width="120" height="30" x="530" y="525" fill="#e1bee7" stroke="#7b1fa2" rx="5"/><text x="590" y="545" font-family="Arial" font-size="12" text-anchor="middle">File Storage</text><line x1="400" x2="400" y1="150" y2="200" stroke="#666" stroke-width="2" marker-end="url(#arrowhead)"/><line x1="400" x2="400" y1="300" y2="350" stroke="#666" stroke-width="2" marker-end="url(#arrowhead)"/><line x1="400" x2="400" y1="450" y2="500" stroke="#666" stroke-width="2" marker-end="url(#arrowhead)"/></svg>