<svg xmlns="http://www.w3.org/2000/svg" width="800" height="600"><rect width="800" height="600" fill="#f8f9fa"/><text x="400" y="50" fill="#212529" font-family="Arial" font-size="24" text-anchor="middle">Technology Stack</text><rect width="600" height="100" x="100" y="100" fill="#e9ecef" stroke="#495057" rx="10"/><text x="150" y="130" fill="#212529" font-family="Arial" font-size="18">Frontend</text><rect width="100" height="40" x="150" y="140" fill="#fff" stroke="#495057" rx="5"/><text x="200" y="165" fill="#212529" font-family="Arial" font-size="14" text-anchor="middle">React</text><rect width="100" height="40" x="270" y="140" fill="#fff" stroke="#495057" rx="5"/><text x="320" y="165" fill="#212529" font-family="Arial" font-size="14" text-anchor="middle">TypeScript</text><rect width="100" height="40" x="390" y="140" fill="#fff" stroke="#495057" rx="5"/><text x="440" y="165" fill="#212529" font-family="Arial" font-size="14" text-anchor="middle">Redux</text><rect width="100" height="40" x="510" y="140" fill="#fff" stroke="#495057" rx="5"/><text x="560" y="165" fill="#212529" font-family="Arial" font-size="14" text-anchor="middle">Tailwind</text><rect width="600" height="100" x="100" y="220" fill="#e9ecef" stroke="#495057" rx="10"/><text x="150" y="250" fill="#212529" font-family="Arial" font-size="18">Backend</text><rect width="100" height="40" x="150" y="260" fill="#fff" stroke="#495057" rx="5"/><text x="200" y="285" fill="#212529" font-family="Arial" font-size="14" text-anchor="middle">Node.js</text><rect width="100" height="40" x="270" y="260" fill="#fff" stroke="#495057" rx="5"/><text x="320" y="285" fill="#212529" font-family="Arial" font-size="14" text-anchor="middle">Express</text><rect width="100" height="40" x="390" y="260" fill="#fff" stroke="#495057" rx="5"/><text x="440" y="285" fill="#212529" font-family="Arial" font-size="14" text-anchor="middle">GraphQL</text><rect width="100" height="40" x="510" y="260" fill="#fff" stroke="#495057" rx="5"/><text x="560" y="285" fill="#212529" font-family="Arial" font-size="14" text-anchor="middle">TypeScript</text><rect width="600" height="100" x="100" y="340" fill="#e9ecef" stroke="#495057" rx="10"/><text x="150" y="370" fill="#212529" font-family="Arial" font-size="18">Database</text><rect width="100" height="40" x="150" y="380" fill="#fff" stroke="#495057" rx="5"/><text x="200" y="405" fill="#212529" font-family="Arial" font-size="14" text-anchor="middle">PostgreSQL</text><rect width="100" height="40" x="270" y="380" fill="#fff" stroke="#495057" rx="5"/><text x="320" y="405" fill="#212529" font-family="Arial" font-size="14" text-anchor="middle">Redis</text><rect width="100" height="40" x="390" y="380" fill="#fff" stroke="#495057" rx="5"/><text x="440" y="405" fill="#212529" font-family="Arial" font-size="14" text-anchor="middle">MongoDB</text><rect width="600" height="100" x="100" y="460" fill="#e9ecef" stroke="#495057" rx="10"/><text x="150" y="490" fill="#212529" font-family="Arial" font-size="18">DevOps</text><rect width="100" height="40" x="150" y="500" fill="#fff" stroke="#495057" rx="5"/><text x="200" y="525" fill="#212529" font-family="Arial" font-size="14" text-anchor="middle">Docker</text><rect width="100" height="40" x="270" y="500" fill="#fff" stroke="#495057" rx="5"/><text x="320" y="525" fill="#212529" font-family="Arial" font-size="14" text-anchor="middle">Kubernetes</text><rect width="100" height="40" x="390" y="500" fill="#fff" stroke="#495057" rx="5"/><text x="440" y="525" fill="#212529" font-family="Arial" font-size="14" text-anchor="middle">Jenkins</text><rect width="100" height="40" x="510" y="500" fill="#fff" stroke="#495057" rx="5"/><text x="560" y="525" fill="#212529" font-family="Arial" font-size="14" text-anchor="middle">AWS</text></svg>