<?xml version="1.0" encoding="UTF-8"?>
<svg width="800" height="600" xmlns="http://www.w3.org/2000/svg">
    <!-- Background -->
    <rect width="800" height="600" fill="#f8f9fa"/>
    
    <!-- Title -->
    <text x="400" y="50" font-family="Arial" font-size="24" fill="#212529" text-anchor="middle">Technology Stack</text>
    
    <!-- Frontend Stack -->
    <rect x="100" y="100" width="600" height="100" rx="10" fill="#e9ecef" stroke="#495057"/>
    <text x="150" y="130" font-family="Arial" font-size="18" fill="#212529">Frontend</text>
    <rect x="150" y="140" width="100" height="40" rx="5" fill="#fff" stroke="#495057"/>
    <text x="200" y="165" font-family="Arial" font-size="14" fill="#212529" text-anchor="middle">React</text>
    <rect x="270" y="140" width="100" height="40" rx="5" fill="#fff" stroke="#495057"/>
    <text x="320" y="165" font-family="Arial" font-size="14" fill="#212529" text-anchor="middle">TypeScript</text>
    <rect x="390" y="140" width="100" height="40" rx="5" fill="#fff" stroke="#495057"/>
    <text x="440" y="165" font-family="Arial" font-size="14" fill="#212529" text-anchor="middle">Redux</text>
    <rect x="510" y="140" width="100" height="40" rx="5" fill="#fff" stroke="#495057"/>
    <text x="560" y="165" font-family="Arial" font-size="14" fill="#212529" text-anchor="middle">Tailwind</text>
    
    <!-- Backend Stack -->
    <rect x="100" y="220" width="600" height="100" rx="10" fill="#e9ecef" stroke="#495057"/>
    <text x="150" y="250" font-family="Arial" font-size="18" fill="#212529">Backend</text>
    <rect x="150" y="260" width="100" height="40" rx="5" fill="#fff" stroke="#495057"/>
    <text x="200" y="285" font-family="Arial" font-size="14" fill="#212529" text-anchor="middle">Node.js</text>
    <rect x="270" y="260" width="100" height="40" rx="5" fill="#fff" stroke="#495057"/>
    <text x="320" y="285" font-family="Arial" font-size="14" fill="#212529" text-anchor="middle">Express</text>
    <rect x="390" y="260" width="100" height="40" rx="5" fill="#fff" stroke="#495057"/>
    <text x="440" y="285" font-family="Arial" font-size="14" fill="#212529" text-anchor="middle">GraphQL</text>
    <rect x="510" y="260" width="100" height="40" rx="5" fill="#fff" stroke="#495057"/>
    <text x="560" y="285" font-family="Arial" font-size="14" fill="#212529" text-anchor="middle">TypeScript</text>
    
    <!-- Database Stack -->
    <rect x="100" y="340" width="600" height="100" rx="10" fill="#e9ecef" stroke="#495057"/>
    <text x="150" y="370" font-family="Arial" font-size="18" fill="#212529">Database</text>
    <rect x="150" y="380" width="100" height="40" rx="5" fill="#fff" stroke="#495057"/>
    <text x="200" y="405" font-family="Arial" font-size="14" fill="#212529" text-anchor="middle">PostgreSQL</text>
    <rect x="270" y="380" width="100" height="40" rx="5" fill="#fff" stroke="#495057"/>
    <text x="320" y="405" font-family="Arial" font-size="14" fill="#212529" text-anchor="middle">Redis</text>
    <rect x="390" y="380" width="100" height="40" rx="5" fill="#fff" stroke="#495057"/>
    <text x="440" y="405" font-family="Arial" font-size="14" fill="#212529" text-anchor="middle">MongoDB</text>
    
    <!-- DevOps Stack -->
    <rect x="100" y="460" width="600" height="100" rx="10" fill="#e9ecef" stroke="#495057"/>
    <text x="150" y="490" font-family="Arial" font-size="18" fill="#212529">DevOps</text>
    <rect x="150" y="500" width="100" height="40" rx="5" fill="#fff" stroke="#495057"/>
    <text x="200" y="525" font-family="Arial" font-size="14" fill="#212529" text-anchor="middle">Docker</text>
    <rect x="270" y="500" width="100" height="40" rx="5" fill="#fff" stroke="#495057"/>
    <text x="320" y="525" font-family="Arial" font-size="14" fill="#212529" text-anchor="middle">Kubernetes</text>
    <rect x="390" y="500" width="100" height="40" rx="5" fill="#fff" stroke="#495057"/>
    <text x="440" y="525" font-family="Arial" font-size="14" fill="#212529" text-anchor="middle">Jenkins</text>
    <rect x="510" y="500" width="100" height="40" rx="5" fill="#fff" stroke="#495057"/>
    <text x="560" y="525" font-family="Arial" font-size="14" fill="#212529" text-anchor="middle">AWS</text>
</svg>